<svg width="26" height="25" viewBox="0 0 26 25" fill="none" xmlns="http://www.w3.org/2000/svg">
<path d="M0.789673 0.789673L1.11962 0.905681C2.76374 1.48372 3.5858 1.77274 4.056 2.46081C4.5262 3.14889 4.5262 4.06285 4.5262 5.89076V9.32863C4.5262 13.0443 4.60608 14.2705 5.70048 15.4249C6.79488 16.5792 8.55629 16.5792 12.0792 16.5792H13.4213M18.7776 16.5792C20.7493 16.5792 21.7352 16.5792 22.4321 16.0112C23.129 15.4433 23.3281 14.4778 23.7261 12.5465L24.3574 9.48368C24.7959 7.28697 25.015 6.18863 24.4543 5.45967C23.8936 4.73073 21.9776 4.73073 19.8492 4.73073H12.1878M4.5262 4.73073H7.10547M7.73704 19.7371C8.78348 19.7371 9.63178 20.5854 9.63178 21.6318C9.63178 22.6782 8.78348 23.5265 7.73704 23.5265C6.69061 23.5265 5.84231 22.6782 5.84231 21.6318C5.84231 20.5854 6.69061 19.7371 7.73704 19.7371ZM19.1055 19.7372C20.1519 19.7372 21.0002 20.5854 21.0002 21.6319C21.0002 22.6783 20.1519 23.5267 19.1055 23.5267C18.0591 23.5267 17.2107 22.6783 17.2107 21.6319C17.2107 20.5854 18.0591 19.7372 19.1055 19.7372Z" stroke="#1C274C" stroke-width="1.57895" stroke-linecap="round"/>
</svg>
