<svg width="25" height="25" viewBox="0 0 25 25" fill="none" xmlns="http://www.w3.org/2000/svg">
<path d="M5.35742 0.5H19.6426C22.3251 0.5 24.5 2.6749 24.5 5.35742V19.6426C24.5 22.3251 22.3251 24.5 19.6426 24.5H5.35742C2.6749 24.5 0.5 22.3251 0.5 19.6426V5.35742C0.5 2.6749 2.6749 0.5 5.35742 0.5ZM19.6895 5.38672C18.7968 4.49409 17.3497 4.49409 16.457 5.38672L8.69922 13.1445C8.41811 13.4256 8.17935 13.7465 7.99121 14.0967L6.17676 17.4746C6.01497 17.776 6.01239 18.1378 6.16992 18.4414C6.43351 18.949 7.0588 19.1473 7.56641 18.8838L10.752 17.2295C11.2028 16.9954 11.6154 16.6932 11.9746 16.334L19.6895 8.61914C20.5821 7.72652 20.5821 6.27935 19.6895 5.38672Z" fill="white" stroke="black"/>
</svg>
