<svg width="23" height="21" viewBox="0 0 23 21" fill="none" xmlns="http://www.w3.org/2000/svg">
<path d="M1.61597 1.04797L20.4796 19.9116M8.78862 8.29332C8.24091 8.85918 7.90383 9.63007 7.90383 10.4798C7.90383 12.2162 9.31146 13.6237 11.0477 13.6237C11.9097 13.6237 12.6907 13.2768 13.2586 12.7151M5.28389 4.87011C3.29347 6.18342 1.77739 8.15739 1.04797 10.4798C2.38336 14.7315 6.35552 17.8156 11.048 17.8156C13.1323 17.8156 15.0745 17.2072 16.7066 16.1581M9.99977 3.19569C10.3446 3.16146 10.6943 3.14393 11.048 3.14393C15.7405 3.14393 19.7126 6.22803 21.048 10.4798C20.7538 11.4167 20.3315 12.2968 19.8017 13.0997" stroke="#5397F5" stroke-width="2.09596" stroke-linecap="round" stroke-linejoin="round"/>
</svg>
