<svg width="20" height="20" viewBox="0 0 20 20" fill="none" xmlns="http://www.w3.org/2000/svg">
<path fill-rule="evenodd" clip-rule="evenodd" d="M13.7669 5.66872C13.4675 5.49372 13.0856 5.60003 12.9131 5.89378L8.91625 12.8188L6.68 10.7562C6.44375 10.5062 6.04813 10.4938 5.79625 10.7313C5.54438 10.9625 5.53125 11.3625 5.7675 11.6125L8.625 14.25C8.86063 14.5 9.25625 14.5125 9.50812 14.275C9.58437 14.2062 13.9956 6.51878 13.9956 6.51878C14.1681 6.22503 14.0656 5.83747 13.7669 5.66872ZM10 18.75C5.1675 18.75 1.25 14.8313 1.25 10C1.25 5.16875 5.1675 1.25 10 1.25C14.8325 1.25 18.75 5.16875 18.75 10C18.75 14.8313 14.8325 18.75 10 18.75ZM10 0C4.4775 0 0 4.475 0 10C0 15.525 4.4775 20 10 20C15.5225 20 20 15.525 20 10C20 4.475 15.5225 0 10 0Z" fill="white"/>
</svg>
